<svg width="38" height="38" viewBox="0 0 38 38" fill="none" xmlns="http://www.w3.org/2000/svg">
<path d="M34.7859 29.0225C34.7859 29.5925 34.6592 30.1783 34.3901 30.7483C34.1209 31.3183 33.7726 31.8566 33.3134 32.3633C32.5376 33.2183 31.6826 33.8358 30.7167 34.2316C29.7667 34.6275 28.7376 34.8333 27.6292 34.8333C26.0142 34.8333 24.2884 34.4533 22.4676 33.6775C20.6467 32.9016 18.8259 31.8566 17.0209 30.5425C15.2001 29.2125 13.4742 27.74 11.8276 26.1091C10.1967 24.4625 8.72425 22.7366 7.41008 20.9316C6.11175 19.1266 5.06675 17.3216 4.30675 15.5325C3.54675 13.7275 3.16675 12.0016 3.16675 10.355C3.16675 9.27829 3.35675 8.24913 3.73675 7.29913C4.11675 6.33329 4.71841 5.44663 5.55758 4.65496C6.57091 3.65746 7.67925 3.16663 8.85092 3.16663C9.29425 3.16663 9.73758 3.26163 10.1334 3.45163C10.5451 3.64163 10.9092 3.92663 11.1942 4.33829L14.8676 9.51579C15.1526 9.91163 15.3584 10.2758 15.5009 10.6241C15.6434 10.9566 15.7226 11.2891 15.7226 11.59C15.7226 11.97 15.6117 12.35 15.3901 12.7141C15.1842 13.0783 14.8834 13.4583 14.5034 13.8383L13.3001 15.0891C13.1259 15.2633 13.0467 15.4691 13.0467 15.7225C13.0467 15.8491 13.0626 15.96 13.0942 16.0866C13.1417 16.2133 13.1892 16.3083 13.2209 16.4033C13.5059 16.9258 13.9967 17.6066 14.6934 18.43C15.4059 19.2533 16.1659 20.0925 16.9892 20.9316C17.8442 21.7708 18.6676 22.5466 19.5067 23.2591C20.3301 23.9558 21.0109 24.4308 21.5492 24.7158C21.6284 24.7475 21.7234 24.795 21.8342 24.8425C21.9609 24.89 22.0876 24.9058 22.2301 24.9058C22.4992 24.9058 22.7051 24.8108 22.8792 24.6366L24.0826 23.4491C24.4784 23.0533 24.8584 22.7525 25.2226 22.5625C25.5867 22.3408 25.9509 22.23 26.3467 22.23C26.6476 22.23 26.9642 22.2933 27.3126 22.4358C27.6609 22.5783 28.0251 22.7841 28.4209 23.0533L33.6617 26.7741C34.0734 27.0591 34.3584 27.3916 34.5326 27.7875C34.6909 28.1833 34.7859 28.5791 34.7859 29.0225Z" stroke="#067C55" stroke-width="1.5" stroke-miterlimit="10"/>
<path d="M29.2917 14.2499C29.2917 13.2999 28.5475 11.8433 27.4392 10.6558C26.4258 9.56325 25.08 8.70825 23.75 8.70825" stroke="#067C55" stroke-width="1.5" stroke-linecap="round" stroke-linejoin="round"/>
<path d="M34.8333 14.25C34.8333 8.12246 29.8775 3.16663 23.75 3.16663" stroke="#067C55" stroke-width="1.5" stroke-linecap="round" stroke-linejoin="round"/>
</svg>
