<svg width="28" height="28" viewBox="0 0 28 28" fill="none" xmlns="http://www.w3.org/2000/svg">
<path fill-rule="evenodd" clip-rule="evenodd" d="M13.9999 0.583252C13.5857 0.583252 13.2499 0.919038 13.2499 1.33325C13.2499 1.74747 13.5857 2.08325 13.9999 2.08325C17.3297 2.08325 20.3043 3.21188 22.4411 5.24161C24.5719 7.26569 25.9166 10.23 25.9166 13.9999C25.9166 17.7698 24.5719 20.7341 22.4411 22.7582C20.3043 24.788 17.3297 25.9166 13.9999 25.9166C13.5857 25.9166 13.2499 26.2524 13.2499 26.6666C13.2499 27.0808 13.5857 27.4166 13.9999 27.4166C17.6685 27.4166 21.0272 26.1702 23.4742 23.8458C25.9271 21.5157 27.4166 18.1467 27.4166 13.9999C27.4166 9.85315 25.9271 6.48414 23.4742 4.15406C21.0272 1.82963 17.6685 0.583252 13.9999 0.583252ZM12.9628 9.51126C13.2557 9.21836 13.7306 9.21836 14.0235 9.51126L18.0768 13.5646C18.2175 13.7052 18.2965 13.896 18.2965 14.0949C18.2965 14.2938 18.2175 14.4846 18.0768 14.6252L14.0235 18.6786C13.7306 18.9715 13.2557 18.9715 12.9628 18.6786C12.6699 18.3857 12.6699 17.9108 12.9628 17.6179L15.7357 14.845H1.33325C0.919038 14.845 0.583252 14.5092 0.583252 14.095C0.583252 13.6808 0.919038 13.345 1.33325 13.345H15.7359L12.9628 10.5719C12.6699 10.279 12.6699 9.80415 12.9628 9.51126Z" fill="#067C55"/>
</svg>
