<svg width="52" height="52" viewBox="0 0 33 32" fill="none" xmlns="http://www.w3.org/2000/svg">
<path fill-rule="evenodd" clip-rule="evenodd" d="M15.2597 3.40103C13.8815 4.51926 13.0745 6.29619 12.8387 9.03423C12.8032 9.44691 12.4398 9.75265 12.0271 9.71712C11.6144 9.68158 11.3087 9.31822 11.3442 8.90554C11.5993 5.94358 12.5022 3.70676 14.3145 2.23624C16.1061 0.782512 18.649 0.192383 21.924 0.192383H22.1298C25.7427 0.192383 28.4674 0.911213 30.27 2.71382C32.0726 4.51643 32.7915 7.24112 32.7915 10.854V21.1774C32.7915 24.7903 32.0726 27.515 30.27 29.3176C28.4674 31.1202 25.7427 31.8391 22.1298 31.8391H21.924C18.673 31.8391 16.1446 31.2569 14.3562 29.8262C12.5461 28.3781 11.6325 26.1748 11.3605 23.2578C11.3221 22.8454 11.6253 22.4799 12.0377 22.4415C12.4501 22.403 12.8156 22.7062 12.8541 23.1186C13.1046 25.8066 13.9168 27.5538 15.2932 28.6549C16.6913 29.7733 18.8099 30.3391 21.924 30.3391H22.1298C25.5944 30.3391 27.8255 29.6408 29.2094 28.2569C30.5932 26.8731 31.2915 24.642 31.2915 21.1774V10.854C31.2915 7.38948 30.5932 5.15833 29.2094 3.77448C27.8255 2.39064 25.5944 1.69238 22.1298 1.69238H21.924C18.7864 1.69238 16.6585 2.266 15.2597 3.40103ZM0.416626 15.9999C0.416626 15.5857 0.752412 15.2499 1.16663 15.2499H21.5224L17.4986 11.2261C17.2057 10.9332 17.2057 10.4583 17.4986 10.1654C17.7915 9.87255 18.2664 9.87255 18.5593 10.1654L23.8635 15.4696C24.1564 15.7625 24.1564 16.2374 23.8635 16.5303L18.5593 21.8344C18.2664 22.1273 17.7915 22.1273 17.4986 21.8344C17.2057 21.5415 17.2057 21.0667 17.4986 20.7738L21.5225 16.7499H1.16663C0.752412 16.7499 0.416626 16.4141 0.416626 15.9999Z" fill="#067C55"/>
</svg>
