<svg width="38" height="38" viewBox="0 0 38 38" fill="none" xmlns="http://www.w3.org/2000/svg">
<path d="M33.1076 17.6068C33.1076 25.3493 27.4868 32.601 19.8076 34.7226C19.2851 34.8651 18.7151 34.8651 18.1926 34.7226C10.5134 32.601 4.89258 25.3493 4.89258 17.6068V10.6559C4.89258 9.35762 5.87427 7.88512 7.09343 7.39429L15.9126 3.78434C17.8917 2.97684 20.1242 2.97684 22.1034 3.78434L30.9226 7.39429C32.1259 7.88512 33.1234 9.35762 33.1234 10.6559L33.1076 17.6068Z" stroke="#067C55" stroke-width="1.5" stroke-linecap="round" stroke-linejoin="round"/>
<path d="M18.9999 19.7917C20.7488 19.7917 22.1666 18.3739 22.1666 16.625C22.1666 14.8761 20.7488 13.4584 18.9999 13.4584C17.251 13.4584 15.8333 14.8761 15.8333 16.625C15.8333 18.3739 17.251 19.7917 18.9999 19.7917Z" stroke="#067C55" stroke-width="1.5" stroke-miterlimit="10" stroke-linecap="round" stroke-linejoin="round"/>
<path d="M19 19.7916V24.5416" stroke="#067C55" stroke-width="1.5" stroke-miterlimit="10" stroke-linecap="round" stroke-linejoin="round"/>
</svg>
