<svg width="38" height="38" viewBox="0 0 38 38" fill="none" xmlns="http://www.w3.org/2000/svg">
<path d="M34.8333 17.2583V6.49163C34.8333 4.11663 33.82 3.16663 31.3025 3.16663H24.9058C22.3883 3.16663 21.375 4.11663 21.375 6.49163V17.2583C21.375 19.6333 22.3883 20.5833 24.9058 20.5833H31.3025C33.82 20.5833 34.8333 19.6333 34.8333 17.2583Z" stroke="#067C55" stroke-width="1.5" stroke-linecap="round" stroke-linejoin="round"/>
<path d="M34.8333 31.5084V28.6584C34.8333 26.2834 33.82 25.3334 31.3025 25.3334H24.9058C22.3883 25.3334 21.375 26.2834 21.375 28.6584V31.5084C21.375 33.8834 22.3883 34.8334 24.9058 34.8334H31.3025C33.82 34.8334 34.8333 33.8834 34.8333 31.5084Z" stroke="#067C55" stroke-width="1.5" stroke-linecap="round" stroke-linejoin="round"/>
<path d="M16.625 20.7416V31.5083C16.625 33.8833 15.6116 34.8333 13.0941 34.8333H6.69746C4.17996 34.8333 3.16663 33.8833 3.16663 31.5083V20.7416C3.16663 18.3666 4.17996 17.4166 6.69746 17.4166H13.0941C15.6116 17.4166 16.625 18.3666 16.625 20.7416Z" stroke="#067C55" stroke-width="1.5" stroke-linecap="round" stroke-linejoin="round"/>
<path d="M16.625 6.49163V9.34163C16.625 11.7166 15.6116 12.6666 13.0941 12.6666H6.69746C4.17996 12.6666 3.16663 11.7166 3.16663 9.34163V6.49163C3.16663 4.11663 4.17996 3.16663 6.69746 3.16663H13.0941C15.6116 3.16663 16.625 4.11663 16.625 6.49163Z" stroke="#067C55" stroke-width="1.5" stroke-linecap="round" stroke-linejoin="round"/>
</svg>
