<svg width="23" height="28" viewBox="0 0 23 28" fill="none" xmlns="http://www.w3.org/2000/svg">
<path d="M16.6787 0.440002C16.8011 2.21048 16.2237 3.63608 15.3719 4.68152C14.1191 6.21944 12.2716 6.93656 11.1822 6.72344C10.9778 5.4944 11.4854 3.92624 12.5186 2.66264C13.492 1.47248 14.9313 0.551602 16.6787 0.440002ZM11.417 8.3024C12.6597 8.3024 14.0054 7.04312 16.2208 7.04312C17.2194 7.04312 20.0822 7.3448 21.6604 9.77264C21.0333 10.227 18.717 11.685 18.717 15.0027C18.717 18.9123 21.8836 20.2652 22.3638 20.5129C22.1903 21.1587 21.3558 23.3994 19.9482 25.1533C19.5126 25.6962 18.2037 27.7806 16.2489 27.7806C14.4741 27.7806 13.7987 26.6818 11.7503 26.6818C9.41752 26.6818 9.30592 27.8 7.03648 27.8C6.55984 27.8 5.86072 27.5847 5.30632 27.0973C3.33856 25.365 0.0942383 20.8873 0.0942383 15.303C0.0942383 9.78488 3.754 7.136 6.96304 7.136C8.98192 7.13528 10.1325 8.3024 11.417 8.3024Z" fill="black"/>
</svg>
