<svg width="591" height="455" viewBox="0 0 591 455" fill="none" xmlns="http://www.w3.org/2000/svg">
<g clip-path="url(#clip0_2016_10557)">
<path d="M577.206 454.487H222.612C218.955 454.482 215.449 452.925 212.863 450.155C210.277 447.385 208.822 443.63 208.818 439.714V14.773C208.822 10.8563 210.277 7.1013 212.863 4.33178C215.449 1.56226 218.955 0.00440919 222.612 0H577.206C580.863 0.00440919 584.369 1.56226 586.955 4.33178C589.541 7.1013 590.996 10.8563 591 14.773V439.714C590.996 443.63 589.541 447.385 586.955 450.155C584.369 452.925 580.863 454.482 577.206 454.487V454.487ZM222.612 1.738C219.385 1.74191 216.291 3.11648 214.01 5.56017C211.728 8.00386 210.444 11.3171 210.441 14.773V439.714C210.444 443.17 211.728 446.483 214.01 448.927C216.291 451.37 219.385 452.745 222.612 452.749H577.206C580.433 452.745 583.526 451.37 585.808 448.927C588.09 446.483 589.373 443.17 589.377 439.714V14.773C589.373 11.3171 588.09 8.00386 585.808 5.56017C583.526 3.11648 580.433 1.74191 577.206 1.738H222.612Z" fill="#3F3D56"/>
<path d="M590.189 36.142H209.629V37.88H590.189V36.142Z" fill="#3F3D56"/>
<path d="M228.292 26.07C231.877 26.07 234.784 22.9575 234.784 19.118C234.784 15.2785 231.877 12.166 228.292 12.166C224.707 12.166 221.801 15.2785 221.801 19.118C221.801 22.9575 224.707 26.07 228.292 26.07Z" fill="#067C55"/>
<path d="M248.578 26.07C252.163 26.07 255.069 22.9575 255.069 19.118C255.069 15.2785 252.163 12.166 248.578 12.166C244.993 12.166 242.086 15.2785 242.086 19.118C242.086 22.9575 244.993 26.07 248.578 26.07Z" fill="#067C55"/>
<path d="M268.863 26.07C272.449 26.07 275.355 22.9575 275.355 19.118C275.355 15.2785 272.449 12.166 268.863 12.166C265.278 12.166 262.372 15.2785 262.372 19.118C262.372 22.9575 265.278 26.07 268.863 26.07Z" fill="#067C55"/>
<path d="M526.492 99.9349H273.326C270.529 99.9349 267.846 98.7447 265.867 96.6261C263.889 94.5075 262.778 91.6341 262.778 88.6379C262.778 85.6418 263.889 82.7684 265.867 80.6498C267.846 78.5312 270.529 77.3409 273.326 77.3409H526.492C529.289 77.3409 531.972 78.5312 533.951 80.6498C535.929 82.7684 537.04 85.6418 537.04 88.6379C537.04 91.6341 535.929 94.5075 533.951 96.6261C531.972 98.7447 529.289 99.9349 526.492 99.9349V99.9349ZM273.326 79.0789C270.959 79.0789 268.689 80.0861 267.015 81.8787C265.341 83.6714 264.401 86.1027 264.401 88.6379C264.401 91.1731 265.341 93.6045 267.015 95.3972C268.689 97.1898 270.959 98.1969 273.326 98.1969H526.492C528.859 98.1969 531.129 97.1898 532.803 95.3972C534.477 93.6045 535.417 91.1731 535.417 88.6379C535.417 86.1027 534.477 83.6714 532.803 81.8787C531.129 80.0861 528.859 79.0789 526.492 79.0789H273.326Z" fill="#3F3D56"/>
<path d="M463.894 189.086H348.671C346.949 189.086 345.298 188.354 344.081 187.05C342.863 185.746 342.179 183.978 342.179 182.134C342.179 180.29 342.863 178.522 344.081 177.218C345.298 175.915 346.949 175.182 348.671 175.182H463.894C465.615 175.182 467.266 175.915 468.484 177.218C469.701 178.522 470.385 180.29 470.385 182.134C470.385 183.978 469.701 185.746 468.484 187.05C467.266 188.354 465.615 189.086 463.894 189.086Z" fill="#CCCCCC"/>
<path d="M530.431 212.549H348.671C346.949 212.549 345.298 211.817 344.081 210.513C342.863 209.209 342.179 207.441 342.179 205.597C342.179 203.753 342.863 201.985 344.081 200.681C345.298 199.378 346.949 198.645 348.671 198.645H530.431C532.152 198.645 533.803 199.378 535.021 200.681C536.238 201.985 536.922 203.753 536.922 205.597C536.922 207.441 536.238 209.209 535.021 210.513C533.803 211.817 532.152 212.549 530.431 212.549Z" fill="#CCCCCC"/>
<path d="M305.496 213.853H270.605C268.561 213.85 266.601 212.98 265.156 211.432C263.711 209.884 262.898 207.786 262.896 205.597V182.134C262.898 179.945 263.711 177.847 265.156 176.299C266.601 174.752 268.561 173.881 270.605 173.879H305.496C307.54 173.881 309.499 174.752 310.944 176.299C312.389 177.847 313.202 179.945 313.204 182.134V205.597C313.202 207.786 312.389 209.884 310.944 211.432C309.499 212.98 307.54 213.85 305.496 213.853V213.853ZM270.605 175.617C268.991 175.619 267.444 176.306 266.303 177.528C265.162 178.75 264.521 180.406 264.519 182.134V205.597C264.521 207.325 265.162 208.982 266.303 210.204C267.444 211.425 268.991 212.113 270.605 212.115H305.496C307.109 212.113 308.656 211.425 309.797 210.204C310.938 208.982 311.58 207.325 311.582 205.597V182.134C311.58 180.406 310.938 178.75 309.797 177.528C308.656 176.306 307.109 175.619 305.496 175.617H270.605Z" fill="#CCCCCC"/>
<path d="M463.894 271.641H348.671C346.949 271.641 345.298 270.909 344.081 269.605C342.863 268.301 342.179 266.533 342.179 264.689C342.179 262.845 342.863 261.077 344.081 259.773C345.298 258.469 346.949 257.737 348.671 257.737H463.894C465.615 257.737 467.266 258.469 468.484 259.773C469.701 261.077 470.385 262.845 470.385 264.689C470.385 266.533 469.701 268.301 468.484 269.605C467.266 270.909 465.615 271.641 463.894 271.641Z" fill="#CCCCCC"/>
<path d="M530.431 295.104H348.671C346.949 295.104 345.298 294.372 344.081 293.068C342.863 291.764 342.179 289.996 342.179 288.152C342.179 286.308 342.863 284.54 344.081 283.236C345.298 281.933 346.949 281.2 348.671 281.2H530.431C532.152 281.2 533.803 281.933 535.021 283.236C536.238 284.54 536.922 286.308 536.922 288.152C536.922 289.996 536.238 291.764 535.021 293.068C533.803 294.372 532.152 295.104 530.431 295.104Z" fill="#CCCCCC"/>
<path d="M305.496 296.408H270.605C268.561 296.405 266.601 295.535 265.156 293.987C263.711 292.439 262.898 290.341 262.896 288.152V264.689C262.898 262.5 263.711 260.402 265.156 258.854C266.601 257.307 268.561 256.436 270.605 256.434H305.496C307.54 256.436 309.499 257.307 310.944 258.854C312.389 260.402 313.202 262.5 313.204 264.689V288.152C313.202 290.341 312.389 292.439 310.944 293.987C309.499 295.535 307.54 296.405 305.496 296.408V296.408ZM270.605 258.172C268.991 258.174 267.444 258.861 266.303 260.083C265.162 261.304 264.521 262.961 264.519 264.689V288.152C264.521 289.88 265.162 291.537 266.303 292.759C267.444 293.98 268.991 294.668 270.605 294.67H305.496C307.109 294.668 308.656 293.98 309.797 292.759C310.938 291.537 311.58 289.88 311.582 288.152V264.689C311.58 262.961 310.938 261.304 309.797 260.083C308.656 258.861 307.109 258.174 305.496 258.172H270.605Z" fill="#CCCCCC"/>
<path d="M463.894 354.196H348.671C346.949 354.196 345.298 353.464 344.081 352.16C342.863 350.856 342.179 349.088 342.179 347.244C342.179 345.4 342.863 343.632 344.081 342.328C345.298 341.024 346.949 340.292 348.671 340.292H463.894C465.615 340.292 467.266 341.024 468.484 342.328C469.701 343.632 470.385 345.4 470.385 347.244C470.385 349.088 469.701 350.856 468.484 352.16C467.266 353.464 465.615 354.196 463.894 354.196Z" fill="#F2F2F2"/>
<path d="M530.431 377.659H348.671C346.949 377.659 345.298 376.927 344.081 375.623C342.863 374.319 342.179 372.551 342.179 370.707C342.179 368.863 342.863 367.095 344.081 365.791C345.298 364.487 346.949 363.755 348.671 363.755H530.431C532.152 363.755 533.803 364.487 535.021 365.791C536.238 367.095 536.922 368.863 536.922 370.707C536.922 372.551 536.238 374.319 535.021 375.623C533.803 376.927 532.152 377.659 530.431 377.659Z" fill="#F2F2F2"/>
<path d="M305.496 378.963H270.605C268.561 378.96 266.601 378.089 265.156 376.542C263.711 374.994 262.898 372.896 262.896 370.707V347.244C262.898 345.055 263.711 342.957 265.156 341.409C266.601 339.862 268.561 338.991 270.605 338.989H305.496C307.54 338.991 309.499 339.862 310.944 341.409C312.389 342.957 313.202 345.055 313.204 347.244V370.707C313.202 372.896 312.389 374.994 310.944 376.542C309.499 378.089 307.54 378.96 305.496 378.963Z" fill="#F2F2F2"/>
<path d="M288.05 206.673L286.171 204.858C279.499 198.298 275.095 194.04 275.095 188.736C275.078 187.726 275.251 186.724 275.602 185.787C275.954 184.851 276.478 184 277.142 183.284C277.807 182.568 278.598 182.002 279.471 181.62C280.343 181.237 281.278 181.046 282.22 181.058C283.332 181.064 284.43 181.33 285.437 181.836C286.443 182.342 287.335 183.077 288.05 183.99C288.765 183.077 289.657 182.342 290.664 181.836C291.671 181.33 292.768 181.064 293.88 181.058C294.823 181.046 295.758 181.237 296.63 181.62C297.502 182.002 298.294 182.568 298.958 183.284C299.623 184 300.146 184.851 300.498 185.787C300.85 186.724 301.022 187.726 301.006 188.736C301.006 194.04 296.601 198.298 289.929 204.858L288.05 206.673Z" fill="#067C55"/>
<path d="M288.05 289.228L286.171 287.413C279.499 280.853 275.095 276.595 275.095 271.291C275.078 270.281 275.251 269.279 275.602 268.342C275.954 267.406 276.478 266.555 277.142 265.839C277.807 265.123 278.598 264.557 279.471 264.175C280.343 263.792 281.278 263.601 282.22 263.613C283.332 263.619 284.43 263.885 285.437 264.391C286.443 264.897 287.335 265.632 288.05 266.544C288.765 265.632 289.657 264.897 290.664 264.391C291.671 263.885 292.768 263.619 293.88 263.613C294.823 263.601 295.758 263.792 296.63 264.175C297.502 264.557 298.294 265.123 298.958 265.839C299.623 266.555 300.146 267.406 300.498 268.342C300.85 269.279 301.022 270.281 301.006 271.291C301.006 276.595 296.601 280.853 289.929 287.413L288.05 289.228Z" fill="#067C55"/>
<path d="M140.645 275.34H105.754C103.71 275.338 101.751 274.467 100.306 272.92C98.8606 271.372 98.0477 269.274 98.0454 267.085V243.622C98.0477 241.433 98.8606 239.335 100.306 237.787C101.751 236.239 103.71 235.369 105.754 235.366H140.645C142.689 235.369 144.648 236.239 146.094 237.787C147.539 239.335 148.352 241.433 148.354 243.622V267.085C148.352 269.274 147.539 271.372 146.094 272.92C144.648 274.467 142.689 275.338 140.645 275.34V275.34ZM105.754 237.104C104.14 237.106 102.594 237.794 101.453 239.015C100.312 240.237 99.6701 241.894 99.6683 243.622V267.085C99.6701 268.813 100.312 270.469 101.453 271.691C102.594 272.913 104.14 273.6 105.754 273.602H140.645C142.259 273.6 143.806 272.913 144.947 271.691C146.088 270.469 146.729 268.813 146.731 267.085V243.622C146.729 241.894 146.088 240.237 144.947 239.015C143.806 237.794 142.259 237.106 140.645 237.104H105.754Z" fill="#3F3D56"/>
<path d="M123.199 268.161L121.321 266.346C114.649 259.785 110.244 255.527 110.244 250.223C110.227 249.214 110.4 248.212 110.752 247.275C111.103 246.339 111.627 245.487 112.291 244.771C112.956 244.056 113.747 243.49 114.62 243.107C115.492 242.725 116.427 242.534 117.369 242.546C118.482 242.552 119.579 242.817 120.586 243.324C121.593 243.83 122.485 244.565 123.199 245.477C123.914 244.565 124.806 243.83 125.813 243.324C126.82 242.817 127.917 242.552 129.03 242.546C129.972 242.534 130.907 242.725 131.779 243.107C132.651 243.49 133.443 244.056 134.108 244.771C134.772 245.487 135.296 246.339 135.647 247.275C135.999 248.212 136.172 249.214 136.155 250.223C136.155 255.527 131.75 259.785 125.078 266.346L123.199 268.161Z" fill="#067C55"/>
<path d="M103.023 445.02L112.047 442.721L108.062 404.347L94.7422 407.741L103.023 445.02Z" fill="#FFB8B8"/>
<path d="M131.445 447.261L103.082 454.487L100.475 442.751L117.88 438.317C119.319 437.95 120.811 437.891 122.272 438.142C123.733 438.393 125.133 438.95 126.392 439.78C127.652 440.611 128.746 441.699 129.613 442.983C130.48 444.266 131.103 445.72 131.445 447.261V447.261V447.261Z" fill="#2F2E41"/>
<path d="M94.1644 420.311L74.5642 348.37L99.0572 341.863L113.426 418.054C113.531 418.612 113.521 419.188 113.397 419.742C113.273 420.295 113.038 420.813 112.707 421.259C112.376 421.705 111.959 422.069 111.484 422.324C111.008 422.579 110.487 422.72 109.955 422.737L97.7782 423.125C97.7416 423.125 97.7051 423.126 97.6687 423.126C96.8789 423.126 96.1104 422.851 95.4786 422.344C94.8468 421.836 94.3857 421.123 94.1644 420.311V420.311Z" fill="#2F2E41"/>
<path d="M47.1358 445.261L56.4121 445.261L60.8238 406.941L47.1326 406.943L47.1358 445.261Z" fill="#FFB8B8"/>
<path d="M74.3032 454.484L45.1489 454.487L45.1479 442.423L63.038 442.422C66.0255 442.421 68.8907 443.692 71.0033 445.954C73.1159 448.216 74.303 451.285 74.3032 454.484V454.484V454.484Z" fill="#2F2E41"/>
<path d="M45.507 430.373C45.1661 430.019 44.8941 429.597 44.7069 429.13C44.5196 428.663 44.4207 428.161 44.4161 427.653L35.9646 355.887C35.9612 354.852 36.3405 353.857 37.0198 353.121C37.6991 352.384 38.623 351.966 39.5895 351.957L58.4538 351.811H58.4807C59.4386 351.813 60.3574 352.218 61.0398 352.938C61.7223 353.658 62.1142 354.636 62.1313 355.661L63.1341 426.358C63.1491 427.39 62.7825 428.386 62.1143 429.129C61.4461 429.873 60.5305 430.303 59.5673 430.326L48.1158 431.492C48.0982 431.492 48.0805 431.492 48.0629 431.492C47.1064 431.495 46.1877 431.092 45.507 430.373V430.373Z" fill="#2F2E41"/>
<path d="M49.5496 192.839C60.5563 192.839 69.4791 183.283 69.4791 171.495C69.4791 159.708 60.5563 150.152 49.5496 150.152C38.5428 150.152 29.6201 159.708 29.6201 171.495C29.6201 183.283 38.5428 192.839 49.5496 192.839Z" fill="#FFB8B8"/>
<path d="M23.2943 352.138C10.3273 341.288 10.4646 328.629 14.8891 311.721C16.1356 306.958 17.4809 302.131 18.9051 297.02C25.5223 273.275 33.0222 246.361 30.1749 224.139L30.5769 224.08L30.1749 224.139C29.395 218.052 31.3829 211.65 35.6287 206.574C39.8746 201.498 45.5895 198.685 51.3342 198.844C57.0689 199.008 62.6453 202.147 66.6331 207.458C70.6015 212.743 72.4955 231.326 73.0569 233.989C75.6344 246.213 77.1901 253.592 78.3059 265.362C79.6254 279.278 95.429 320.883 100.465 327.861C101.801 329.702 102.758 331.827 103.273 334.093C103.787 336.36 103.847 338.718 103.448 341.011C103.077 343.193 102.273 345.263 101.089 347.083C99.905 348.902 98.37 350.428 96.5875 351.556C88.4149 356.907 79.4345 360.692 70.0489 362.741C65.9777 363.587 61.8403 364.013 57.6933 364.015C44.8266 364.015 32.5324 359.868 23.2943 352.138Z" fill="#067C55"/>
<path d="M106.171 271.727C105.655 270.672 104.929 269.751 104.045 269.028C103.16 268.306 102.139 267.8 101.052 267.546C99.965 267.293 98.8394 267.297 97.7544 267.56C96.6694 267.822 95.6514 268.336 94.7719 269.066L79.6703 259.837L72.1953 268.298L93.6928 281.01C94.9349 282.511 96.6481 283.471 98.5075 283.71C100.367 283.949 102.244 283.448 103.782 282.304C105.32 281.16 106.413 279.451 106.853 277.502C107.293 275.553 107.051 273.498 106.171 271.727V271.727Z" fill="#FFB8B8"/>
<path d="M83.1497 277.983L56.0828 268.876C52.4487 267.645 49.2548 265.249 46.9319 262.013C44.609 258.776 43.2689 254.854 43.0924 250.777L41.9278 222.611C41.8623 221.027 42.0959 219.445 42.6146 217.959C43.1333 216.474 43.9265 215.116 44.9466 213.966C45.9667 212.816 47.1929 211.899 48.5518 211.268C49.9106 210.638 51.3743 210.307 52.8551 210.297C54.336 210.286 55.8036 210.595 57.1703 211.206C58.537 211.817 59.7746 212.717 60.8091 213.852C61.8436 214.986 62.6537 216.333 63.191 217.811C63.7284 219.289 63.9819 220.868 63.9363 222.453L63.1919 248.366L91.9989 260.948C92.5075 261.17 92.9628 261.512 93.3308 261.949C93.6988 262.386 93.97 262.906 94.1243 263.471C94.2786 264.035 94.3119 264.63 94.2218 265.21C94.1317 265.791 93.9205 266.342 93.6039 266.823L87.2284 276.506C86.7834 277.184 86.1481 277.693 85.4147 277.959C84.6812 278.225 83.8878 278.233 83.1497 277.983H83.1497Z" fill="#2F2E41"/>
<path d="M17.431 198.055C18.3417 192.205 18.3083 186.143 18.2758 180.279C18.267 178.688 18.2581 177.097 18.2672 175.508C18.3096 168.127 18.7373 160.304 21.5549 153.102C24.6216 145.264 30.3004 139.605 36.7458 137.962C44.0126 136.109 51.8977 140.206 54.2715 146.952C55.8408 146.003 57.5872 145.439 59.3848 145.3C61.1824 145.161 62.9864 145.452 64.6665 146.15C66.3466 146.849 67.8611 147.938 69.1005 149.339C70.3399 150.74 71.2735 152.419 71.8338 154.253C72.3941 156.088 72.5672 158.032 72.3405 159.947C72.1139 161.862 71.4933 163.699 70.5233 165.326C69.5534 166.953 68.2583 168.329 66.7317 169.354C65.205 170.38 63.4847 171.03 61.695 171.258L61.3905 171.287L59.0159 164.677C59.0024 164.793 58.9895 164.91 58.9765 165.028C58.8253 166.399 58.669 167.816 57.6125 168.634C56.2936 169.656 54.6509 173.019 55.1309 176.425C55.4302 178.169 55.8761 179.879 56.4633 181.536C57.1159 183.356 57.5897 185.243 57.877 187.167C58.1789 189.634 57.5762 192.13 56.1955 194.131C55.7863 194.715 55.2703 195.203 54.679 195.567C54.0877 195.93 53.4335 196.161 52.7563 196.244L25.9891 199.209L24.7923 189.634L17.1785 199.676L17.431 198.055Z" fill="#2F2E41"/>
<path d="M156.605 455H0.811427C0.596223 455 0.389833 454.908 0.237661 454.745C0.0854888 454.582 0 454.361 0 454.131C0 453.9 0.0854888 453.679 0.237661 453.516C0.389833 453.354 0.596223 453.262 0.811427 453.262H156.605C156.821 453.262 157.027 453.354 157.179 453.516C157.331 453.679 157.417 453.9 157.417 454.131C157.417 454.361 157.331 454.582 157.179 454.745C157.027 454.908 156.821 455 156.605 455Z" fill="#CCCCCC"/>
<circle cx="577" cy="447" r="27" stroke="#067C55" stroke-opacity="0.54" stroke-width="14"/>
<g filter="url(#filter0_d_2016_10557)">
<rect x="69" y="62" width="173" height="53" rx="10" fill="white"/>
</g>
<path d="M115.738 91.738C115.786 91.738 115.834 91.748 115.882 91.768C115.93 91.784 115.976 91.814 116.02 91.858L116.824 92.704C116.472 93.164 116.03 93.512 115.498 93.748C114.97 93.98 114.344 94.096 113.62 94.096C112.956 94.096 112.36 93.984 111.832 93.76C111.308 93.532 110.862 93.22 110.494 92.824C110.13 92.424 109.85 91.952 109.654 91.408C109.458 90.86 109.36 90.266 109.36 89.626C109.36 88.974 109.466 88.376 109.678 87.832C109.89 87.284 110.188 86.812 110.572 86.416C110.956 86.02 111.416 85.712 111.952 85.492C112.488 85.272 113.078 85.162 113.722 85.162C114.05 85.162 114.358 85.192 114.646 85.252C114.938 85.308 115.21 85.388 115.462 85.492C115.714 85.592 115.946 85.714 116.158 85.858C116.37 86.002 116.558 86.158 116.722 86.326L116.038 87.244C115.994 87.3 115.942 87.352 115.882 87.4C115.822 87.444 115.738 87.466 115.63 87.466C115.558 87.466 115.49 87.45 115.426 87.418C115.362 87.386 115.294 87.348 115.222 87.304C115.15 87.256 115.07 87.206 114.982 87.154C114.898 87.098 114.796 87.048 114.676 87.004C114.56 86.956 114.422 86.916 114.262 86.884C114.106 86.852 113.922 86.836 113.71 86.836C113.374 86.836 113.066 86.898 112.786 87.022C112.51 87.146 112.27 87.328 112.066 87.568C111.866 87.804 111.71 88.096 111.598 88.444C111.49 88.788 111.436 89.182 111.436 89.626C111.436 90.074 111.496 90.472 111.616 90.82C111.74 91.168 111.906 91.462 112.114 91.702C112.326 91.938 112.572 92.118 112.852 92.242C113.132 92.366 113.432 92.428 113.752 92.428C113.936 92.428 114.104 92.42 114.256 92.404C114.408 92.384 114.55 92.354 114.682 92.314C114.814 92.27 114.938 92.214 115.054 92.146C115.17 92.074 115.288 91.984 115.408 91.876C115.456 91.836 115.508 91.804 115.564 91.78C115.62 91.752 115.678 91.738 115.738 91.738ZM119.233 88.738C119.425 88.402 119.645 88.138 119.893 87.946C120.145 87.754 120.433 87.658 120.757 87.658C121.037 87.658 121.265 87.724 121.441 87.856L121.321 89.224C121.301 89.312 121.267 89.372 121.219 89.404C121.175 89.436 121.113 89.452 121.033 89.452C121.001 89.452 120.959 89.45 120.907 89.446C120.855 89.442 120.801 89.438 120.745 89.434C120.689 89.426 120.631 89.42 120.571 89.416C120.515 89.408 120.463 89.404 120.415 89.404C120.143 89.404 119.925 89.476 119.761 89.62C119.601 89.764 119.465 89.964 119.353 90.22V94H117.493V87.778H118.597C118.689 87.778 118.765 87.786 118.825 87.802C118.889 87.818 118.941 87.844 118.981 87.88C119.025 87.912 119.057 87.956 119.077 88.012C119.101 88.068 119.121 88.136 119.137 88.216L119.233 88.738ZM125.84 90.142C125.84 89.994 125.82 89.85 125.78 89.71C125.744 89.57 125.682 89.446 125.594 89.338C125.51 89.226 125.398 89.136 125.258 89.068C125.118 89 124.948 88.966 124.748 88.966C124.396 88.966 124.12 89.068 123.92 89.272C123.72 89.472 123.588 89.762 123.524 90.142H125.84ZM123.5 91.222C123.56 91.742 123.718 92.12 123.974 92.356C124.23 92.588 124.56 92.704 124.964 92.704C125.18 92.704 125.366 92.678 125.522 92.626C125.678 92.574 125.816 92.516 125.936 92.452C126.06 92.388 126.172 92.33 126.272 92.278C126.376 92.226 126.484 92.2 126.596 92.2C126.744 92.2 126.856 92.254 126.932 92.362L127.472 93.028C127.28 93.248 127.072 93.428 126.848 93.568C126.628 93.704 126.4 93.812 126.164 93.892C125.932 93.968 125.698 94.02 125.462 94.048C125.23 94.08 125.008 94.096 124.796 94.096C124.36 94.096 123.95 94.026 123.566 93.886C123.186 93.742 122.852 93.53 122.564 93.25C122.28 92.97 122.054 92.622 121.886 92.206C121.722 91.79 121.64 91.306 121.64 90.754C121.64 90.338 121.71 89.944 121.85 89.572C121.994 89.2 122.198 88.874 122.462 88.594C122.73 88.314 123.052 88.092 123.428 87.928C123.808 87.764 124.236 87.682 124.712 87.682C125.124 87.682 125.5 87.746 125.84 87.874C126.184 88.002 126.478 88.188 126.722 88.432C126.97 88.676 127.162 88.976 127.298 89.332C127.438 89.684 127.508 90.084 127.508 90.532C127.508 90.672 127.502 90.786 127.49 90.874C127.478 90.962 127.456 91.032 127.424 91.084C127.392 91.136 127.348 91.172 127.292 91.192C127.24 91.212 127.172 91.222 127.088 91.222H123.5ZM131.649 91.468C131.277 91.484 130.971 91.516 130.731 91.564C130.491 91.612 130.301 91.672 130.161 91.744C130.021 91.816 129.923 91.898 129.867 91.99C129.815 92.082 129.789 92.182 129.789 92.29C129.789 92.502 129.847 92.652 129.963 92.74C130.079 92.824 130.249 92.866 130.473 92.866C130.713 92.866 130.923 92.824 131.103 92.74C131.283 92.656 131.465 92.52 131.649 92.332V91.468ZM128.301 88.642C128.677 88.31 129.093 88.064 129.549 87.904C130.009 87.74 130.501 87.658 131.025 87.658C131.401 87.658 131.739 87.72 132.039 87.844C132.343 87.964 132.599 88.134 132.807 88.354C133.019 88.57 133.181 88.828 133.293 89.128C133.405 89.428 133.461 89.756 133.461 90.112V94H132.609C132.433 94 132.299 93.976 132.207 93.928C132.119 93.88 132.045 93.78 131.985 93.628L131.853 93.286C131.697 93.418 131.547 93.534 131.403 93.634C131.259 93.734 131.109 93.82 130.953 93.892C130.801 93.96 130.637 94.01 130.461 94.042C130.289 94.078 130.097 94.096 129.885 94.096C129.601 94.096 129.343 94.06 129.111 93.988C128.879 93.912 128.681 93.802 128.517 93.658C128.357 93.514 128.233 93.336 128.145 93.124C128.057 92.908 128.013 92.66 128.013 92.38C128.013 92.156 128.069 91.93 128.181 91.702C128.293 91.47 128.487 91.26 128.763 91.072C129.039 90.88 129.411 90.72 129.879 90.592C130.347 90.464 130.937 90.392 131.649 90.376V90.112C131.649 89.748 131.573 89.486 131.421 89.326C131.273 89.162 131.061 89.08 130.785 89.08C130.565 89.08 130.385 89.104 130.245 89.152C130.105 89.2 129.979 89.254 129.867 89.314C129.759 89.374 129.653 89.428 129.549 89.476C129.445 89.524 129.321 89.548 129.177 89.548C129.049 89.548 128.941 89.516 128.853 89.452C128.765 89.388 128.693 89.312 128.637 89.224L128.301 88.642ZM136.782 94.096C136.486 94.096 136.224 94.054 135.996 93.97C135.772 93.882 135.582 93.76 135.426 93.604C135.274 93.444 135.158 93.252 135.078 93.028C134.998 92.804 134.958 92.554 134.958 92.278V89.062H134.43C134.334 89.062 134.252 89.032 134.184 88.972C134.116 88.908 134.082 88.816 134.082 88.696V87.97L135.072 87.778L135.438 86.26C135.486 86.068 135.622 85.972 135.846 85.972H136.818V87.79H138.36V89.062H136.818V92.152C136.818 92.296 136.852 92.416 136.92 92.512C136.992 92.604 137.094 92.65 137.226 92.65C137.294 92.65 137.35 92.644 137.394 92.632C137.442 92.616 137.482 92.6 137.514 92.584C137.55 92.564 137.582 92.548 137.61 92.536C137.642 92.52 137.678 92.512 137.718 92.512C137.774 92.512 137.818 92.526 137.85 92.554C137.886 92.578 137.922 92.618 137.958 92.674L138.522 93.556C138.282 93.736 138.012 93.872 137.712 93.964C137.412 94.052 137.102 94.096 136.782 94.096ZM142.973 90.142C142.973 89.994 142.953 89.85 142.913 89.71C142.877 89.57 142.815 89.446 142.727 89.338C142.643 89.226 142.531 89.136 142.391 89.068C142.251 89 142.081 88.966 141.881 88.966C141.529 88.966 141.253 89.068 141.053 89.272C140.853 89.472 140.721 89.762 140.657 90.142H142.973ZM140.633 91.222C140.693 91.742 140.851 92.12 141.107 92.356C141.363 92.588 141.693 92.704 142.097 92.704C142.313 92.704 142.499 92.678 142.655 92.626C142.811 92.574 142.949 92.516 143.069 92.452C143.193 92.388 143.305 92.33 143.405 92.278C143.509 92.226 143.617 92.2 143.729 92.2C143.877 92.2 143.989 92.254 144.065 92.362L144.605 93.028C144.413 93.248 144.205 93.428 143.981 93.568C143.761 93.704 143.533 93.812 143.297 93.892C143.065 93.968 142.831 94.02 142.595 94.048C142.363 94.08 142.141 94.096 141.929 94.096C141.493 94.096 141.083 94.026 140.699 93.886C140.319 93.742 139.985 93.53 139.697 93.25C139.413 92.97 139.187 92.622 139.019 92.206C138.855 91.79 138.773 91.306 138.773 90.754C138.773 90.338 138.843 89.944 138.983 89.572C139.127 89.2 139.331 88.874 139.595 88.594C139.863 88.314 140.185 88.092 140.561 87.928C140.941 87.764 141.369 87.682 141.845 87.682C142.257 87.682 142.633 87.746 142.973 87.874C143.317 88.002 143.611 88.188 143.855 88.432C144.103 88.676 144.295 88.976 144.431 89.332C144.571 89.684 144.641 90.084 144.641 90.532C144.641 90.672 144.635 90.786 144.623 90.874C144.611 90.962 144.589 91.032 144.557 91.084C144.525 91.136 144.481 91.172 144.425 91.192C144.373 91.212 144.305 91.222 144.221 91.222H140.633ZM151.559 91.468C151.187 91.484 150.881 91.516 150.641 91.564C150.401 91.612 150.211 91.672 150.071 91.744C149.931 91.816 149.833 91.898 149.777 91.99C149.725 92.082 149.699 92.182 149.699 92.29C149.699 92.502 149.757 92.652 149.873 92.74C149.989 92.824 150.159 92.866 150.383 92.866C150.623 92.866 150.833 92.824 151.013 92.74C151.193 92.656 151.375 92.52 151.559 92.332V91.468ZM148.211 88.642C148.587 88.31 149.003 88.064 149.459 87.904C149.919 87.74 150.411 87.658 150.935 87.658C151.311 87.658 151.649 87.72 151.949 87.844C152.253 87.964 152.509 88.134 152.717 88.354C152.929 88.57 153.091 88.828 153.203 89.128C153.315 89.428 153.371 89.756 153.371 90.112V94H152.519C152.343 94 152.209 93.976 152.117 93.928C152.029 93.88 151.955 93.78 151.895 93.628L151.763 93.286C151.607 93.418 151.457 93.534 151.313 93.634C151.169 93.734 151.019 93.82 150.863 93.892C150.711 93.96 150.547 94.01 150.371 94.042C150.199 94.078 150.007 94.096 149.795 94.096C149.511 94.096 149.253 94.06 149.021 93.988C148.789 93.912 148.591 93.802 148.427 93.658C148.267 93.514 148.143 93.336 148.055 93.124C147.967 92.908 147.923 92.66 147.923 92.38C147.923 92.156 147.979 91.93 148.091 91.702C148.203 91.47 148.397 91.26 148.673 91.072C148.949 90.88 149.321 90.72 149.789 90.592C150.257 90.464 150.847 90.392 151.559 90.376V90.112C151.559 89.748 151.483 89.486 151.331 89.326C151.183 89.162 150.971 89.08 150.695 89.08C150.475 89.08 150.295 89.104 150.155 89.152C150.015 89.2 149.889 89.254 149.777 89.314C149.669 89.374 149.563 89.428 149.459 89.476C149.355 89.524 149.231 89.548 149.087 89.548C148.959 89.548 148.851 89.516 148.763 89.452C148.675 89.388 148.603 89.312 148.547 89.224L148.211 88.642ZM162.383 87.034C162.323 87.13 162.259 87.202 162.191 87.25C162.127 87.298 162.043 87.322 161.939 87.322C161.847 87.322 161.747 87.294 161.639 87.238C161.535 87.178 161.415 87.112 161.279 87.04C161.147 86.968 160.995 86.904 160.823 86.848C160.651 86.788 160.455 86.758 160.235 86.758C159.855 86.758 159.571 86.84 159.383 87.004C159.199 87.164 159.107 87.382 159.107 87.658C159.107 87.834 159.163 87.98 159.275 88.096C159.387 88.212 159.533 88.312 159.713 88.396C159.897 88.48 160.105 88.558 160.337 88.63C160.573 88.698 160.813 88.776 161.057 88.864C161.301 88.948 161.539 89.048 161.771 89.164C162.007 89.28 162.215 89.428 162.395 89.608C162.579 89.788 162.727 90.008 162.839 90.268C162.951 90.524 163.007 90.834 163.007 91.198C163.007 91.602 162.937 91.98 162.797 92.332C162.657 92.684 162.453 92.992 162.185 93.256C161.921 93.516 161.593 93.722 161.201 93.874C160.813 94.022 160.371 94.096 159.875 94.096C159.603 94.096 159.325 94.068 159.041 94.012C158.761 93.956 158.489 93.878 158.225 93.778C157.961 93.674 157.713 93.552 157.481 93.412C157.249 93.272 157.047 93.116 156.875 92.944L157.475 91.996C157.523 91.928 157.585 91.872 157.661 91.828C157.741 91.78 157.827 91.756 157.919 91.756C158.039 91.756 158.159 91.794 158.279 91.87C158.403 91.946 158.541 92.03 158.693 92.122C158.849 92.214 159.027 92.298 159.227 92.374C159.427 92.45 159.663 92.488 159.935 92.488C160.303 92.488 160.589 92.408 160.793 92.248C160.997 92.084 161.099 91.826 161.099 91.474C161.099 91.27 161.043 91.104 160.931 90.976C160.819 90.848 160.671 90.742 160.487 90.658C160.307 90.574 160.101 90.5 159.869 90.436C159.637 90.372 159.399 90.302 159.155 90.226C158.911 90.146 158.673 90.05 158.441 89.938C158.209 89.822 158.001 89.672 157.817 89.488C157.637 89.3 157.491 89.068 157.379 88.792C157.267 88.512 157.211 88.168 157.211 87.76C157.211 87.432 157.277 87.112 157.409 86.8C157.541 86.488 157.735 86.21 157.991 85.966C158.247 85.722 158.561 85.528 158.933 85.384C159.305 85.236 159.731 85.162 160.211 85.162C160.479 85.162 160.739 85.184 160.991 85.228C161.247 85.268 161.489 85.33 161.717 85.414C161.945 85.494 162.157 85.592 162.353 85.708C162.553 85.82 162.731 85.948 162.887 86.092L162.383 87.034ZM165.771 88.324C165.995 88.132 166.237 87.978 166.497 87.862C166.761 87.742 167.075 87.682 167.439 87.682C167.779 87.682 168.079 87.742 168.339 87.862C168.603 87.978 168.825 88.142 169.005 88.354C169.185 88.562 169.321 88.812 169.413 89.104C169.505 89.392 169.551 89.706 169.551 90.046V94H167.691V90.046C167.691 89.742 167.621 89.506 167.481 89.338C167.341 89.166 167.135 89.08 166.863 89.08C166.659 89.08 166.467 89.124 166.287 89.212C166.111 89.296 165.939 89.412 165.771 89.56V94H163.911V85.018H165.771V88.324ZM173.623 87.682C174.095 87.682 174.525 87.756 174.913 87.904C175.301 88.052 175.633 88.264 175.909 88.54C176.189 88.816 176.405 89.152 176.557 89.548C176.713 89.94 176.791 90.382 176.791 90.874C176.791 91.37 176.713 91.818 176.557 92.218C176.405 92.614 176.189 92.952 175.909 93.232C175.633 93.508 175.301 93.722 174.913 93.874C174.525 94.022 174.095 94.096 173.623 94.096C173.147 94.096 172.713 94.022 172.321 93.874C171.933 93.722 171.597 93.508 171.313 93.232C171.033 92.952 170.815 92.614 170.659 92.218C170.507 91.818 170.431 91.37 170.431 90.874C170.431 90.382 170.507 89.94 170.659 89.548C170.815 89.152 171.033 88.816 171.313 88.54C171.597 88.264 171.933 88.052 172.321 87.904C172.713 87.756 173.147 87.682 173.623 87.682ZM173.623 92.716C174.051 92.716 174.365 92.566 174.565 92.266C174.769 91.962 174.871 91.502 174.871 90.886C174.871 90.27 174.769 89.812 174.565 89.512C174.365 89.212 174.051 89.062 173.623 89.062C173.183 89.062 172.861 89.212 172.657 89.512C172.453 89.812 172.351 90.27 172.351 90.886C172.351 91.502 172.453 91.962 172.657 92.266C172.861 92.566 173.183 92.716 173.623 92.716ZM179.588 92.308C179.728 92.46 179.88 92.568 180.044 92.632C180.208 92.696 180.38 92.728 180.56 92.728C180.732 92.728 180.89 92.694 181.034 92.626C181.178 92.558 181.302 92.45 181.406 92.302C181.514 92.15 181.598 91.954 181.658 91.714C181.718 91.474 181.748 91.182 181.748 90.838C181.748 90.51 181.724 90.234 181.676 90.01C181.628 89.786 181.56 89.606 181.472 89.47C181.388 89.33 181.286 89.23 181.166 89.17C181.046 89.11 180.912 89.08 180.764 89.08C180.492 89.08 180.268 89.13 180.092 89.23C179.916 89.33 179.748 89.476 179.588 89.668V92.308ZM179.474 88.546C179.718 88.286 179.994 88.074 180.302 87.91C180.614 87.742 180.984 87.658 181.412 87.658C181.736 87.658 182.036 87.73 182.312 87.874C182.588 88.018 182.826 88.226 183.026 88.498C183.226 88.77 183.382 89.104 183.494 89.5C183.61 89.892 183.668 90.338 183.668 90.838C183.668 91.306 183.602 91.738 183.47 92.134C183.342 92.53 183.16 92.874 182.924 93.166C182.692 93.458 182.412 93.686 182.084 93.85C181.76 94.014 181.4 94.096 181.004 94.096C180.68 94.096 180.408 94.05 180.188 93.958C179.968 93.866 179.768 93.742 179.588 93.586V95.974H177.728V87.778H178.88C179.112 87.778 179.264 87.882 179.336 88.09L179.474 88.546ZM186.49 92.308C186.63 92.46 186.782 92.568 186.946 92.632C187.11 92.696 187.282 92.728 187.462 92.728C187.634 92.728 187.792 92.694 187.936 92.626C188.08 92.558 188.204 92.45 188.308 92.302C188.416 92.15 188.5 91.954 188.56 91.714C188.62 91.474 188.65 91.182 188.65 90.838C188.65 90.51 188.626 90.234 188.578 90.01C188.53 89.786 188.462 89.606 188.374 89.47C188.29 89.33 188.188 89.23 188.068 89.17C187.948 89.11 187.814 89.08 187.666 89.08C187.394 89.08 187.17 89.13 186.994 89.23C186.818 89.33 186.65 89.476 186.49 89.668V92.308ZM186.376 88.546C186.62 88.286 186.896 88.074 187.204 87.91C187.516 87.742 187.886 87.658 188.314 87.658C188.638 87.658 188.938 87.73 189.214 87.874C189.49 88.018 189.728 88.226 189.928 88.498C190.128 88.77 190.284 89.104 190.396 89.5C190.512 89.892 190.57 90.338 190.57 90.838C190.57 91.306 190.504 91.738 190.372 92.134C190.244 92.53 190.062 92.874 189.826 93.166C189.594 93.458 189.314 93.686 188.986 93.85C188.662 94.014 188.302 94.096 187.906 94.096C187.582 94.096 187.31 94.05 187.09 93.958C186.87 93.866 186.67 93.742 186.49 93.586V95.974H184.63V87.778H185.782C186.014 87.778 186.166 87.882 186.238 88.09L186.376 88.546ZM193.434 87.778V94H191.574V87.778H193.434ZM193.626 86.074C193.626 86.222 193.596 86.362 193.536 86.494C193.476 86.622 193.394 86.736 193.29 86.836C193.186 86.932 193.064 87.01 192.924 87.07C192.788 87.126 192.642 87.154 192.486 87.154C192.334 87.154 192.192 87.126 192.06 87.07C191.928 87.01 191.81 86.932 191.706 86.836C191.606 86.736 191.526 86.622 191.466 86.494C191.41 86.362 191.382 86.222 191.382 86.074C191.382 85.922 191.41 85.78 191.466 85.648C191.526 85.516 191.606 85.4 191.706 85.3C191.81 85.2 191.928 85.122 192.06 85.066C192.192 85.01 192.334 84.982 192.486 84.982C192.642 84.982 192.788 85.01 192.924 85.066C193.064 85.122 193.186 85.2 193.29 85.3C193.394 85.4 193.476 85.516 193.536 85.648C193.596 85.78 193.626 85.922 193.626 86.074ZM196.448 88.45C196.568 88.338 196.692 88.234 196.82 88.138C196.948 88.042 197.084 87.962 197.228 87.898C197.376 87.83 197.534 87.778 197.702 87.742C197.874 87.702 198.06 87.682 198.26 87.682C198.6 87.682 198.9 87.742 199.16 87.862C199.424 87.978 199.646 88.142 199.826 88.354C200.006 88.562 200.142 88.812 200.234 89.104C200.326 89.392 200.372 89.706 200.372 90.046V94H198.512V90.046C198.512 89.742 198.442 89.506 198.302 89.338C198.162 89.166 197.956 89.08 197.684 89.08C197.48 89.08 197.288 89.124 197.108 89.212C196.932 89.296 196.76 89.412 196.592 89.56V94H194.732V87.778H195.884C196.116 87.778 196.268 87.882 196.34 88.09L196.448 88.45ZM203.945 90.562C204.253 90.562 204.475 90.486 204.611 90.334C204.751 90.178 204.821 89.978 204.821 89.734C204.821 89.482 204.751 89.284 204.611 89.14C204.475 88.996 204.253 88.924 203.945 88.924C203.637 88.924 203.413 88.996 203.273 89.14C203.137 89.284 203.069 89.482 203.069 89.734C203.069 89.854 203.085 89.964 203.117 90.064C203.153 90.164 203.207 90.252 203.279 90.328C203.351 90.4 203.441 90.458 203.549 90.502C203.661 90.542 203.793 90.562 203.945 90.562ZM205.385 94.228C205.385 94.08 205.319 93.974 205.187 93.91C205.055 93.842 204.883 93.794 204.671 93.766C204.459 93.738 204.221 93.722 203.957 93.718C203.697 93.71 203.437 93.694 203.177 93.67C203.061 93.75 202.965 93.84 202.889 93.94C202.817 94.036 202.781 94.146 202.781 94.27C202.781 94.358 202.799 94.438 202.835 94.51C202.875 94.582 202.943 94.644 203.039 94.696C203.135 94.748 203.263 94.788 203.423 94.816C203.587 94.848 203.793 94.864 204.041 94.864C204.309 94.864 204.529 94.848 204.701 94.816C204.873 94.784 205.009 94.74 205.109 94.684C205.213 94.628 205.285 94.56 205.325 94.48C205.365 94.404 205.385 94.32 205.385 94.228ZM207.221 87.97V88.648C207.221 88.752 207.191 88.834 207.131 88.894C207.075 88.954 206.977 89 206.837 89.032L206.387 89.134C206.411 89.222 206.429 89.312 206.441 89.404C206.457 89.496 206.465 89.592 206.465 89.692C206.465 90.004 206.399 90.284 206.267 90.532C206.139 90.78 205.961 90.992 205.733 91.168C205.509 91.34 205.243 91.474 204.935 91.57C204.627 91.662 204.297 91.708 203.945 91.708C203.849 91.708 203.755 91.706 203.663 91.702C203.571 91.694 203.481 91.682 203.393 91.666C203.257 91.75 203.189 91.844 203.189 91.948C203.189 92.052 203.245 92.128 203.357 92.176C203.469 92.22 203.617 92.252 203.801 92.272C203.985 92.288 204.193 92.3 204.425 92.308C204.661 92.312 204.901 92.326 205.145 92.35C205.389 92.37 205.627 92.406 205.859 92.458C206.095 92.51 206.305 92.594 206.489 92.71C206.673 92.826 206.821 92.982 206.933 93.178C207.045 93.37 207.101 93.616 207.101 93.916C207.101 94.196 207.033 94.47 206.897 94.738C206.761 95.006 206.561 95.244 206.297 95.452C206.033 95.66 205.709 95.826 205.325 95.95C204.941 96.078 204.501 96.142 204.005 96.142C203.517 96.142 203.095 96.096 202.739 96.004C202.387 95.912 202.093 95.79 201.857 95.638C201.625 95.49 201.453 95.318 201.341 95.122C201.229 94.926 201.173 94.722 201.173 94.51C201.173 94.234 201.253 94.004 201.413 93.82C201.573 93.636 201.797 93.488 202.085 93.376C201.933 93.284 201.813 93.166 201.725 93.022C201.637 92.878 201.593 92.692 201.593 92.464C201.593 92.372 201.609 92.276 201.641 92.176C201.673 92.072 201.723 91.972 201.791 91.876C201.863 91.776 201.951 91.682 202.055 91.594C202.159 91.506 202.283 91.428 202.427 91.36C202.103 91.188 201.847 90.962 201.659 90.682C201.471 90.398 201.377 90.068 201.377 89.692C201.377 89.38 201.443 89.1 201.575 88.852C201.707 88.6 201.887 88.388 202.115 88.216C202.347 88.04 202.619 87.906 202.931 87.814C203.243 87.718 203.581 87.67 203.945 87.67C204.473 87.67 204.941 87.77 205.349 87.97H207.221ZM216.259 92.38V94H210.991V85.258H213.019V92.38H216.259ZM218.981 87.778V94H217.121V87.778H218.981ZM219.173 86.074C219.173 86.222 219.143 86.362 219.083 86.494C219.023 86.622 218.941 86.736 218.837 86.836C218.733 86.932 218.611 87.01 218.471 87.07C218.335 87.126 218.189 87.154 218.033 87.154C217.881 87.154 217.739 87.126 217.607 87.07C217.475 87.01 217.357 86.932 217.253 86.836C217.153 86.736 217.073 86.622 217.013 86.494C216.957 86.362 216.929 86.222 216.929 86.074C216.929 85.922 216.957 85.78 217.013 85.648C217.073 85.516 217.153 85.4 217.253 85.3C217.357 85.2 217.475 85.122 217.607 85.066C217.739 85.01 217.881 84.982 218.033 84.982C218.189 84.982 218.335 85.01 218.471 85.066C218.611 85.122 218.733 85.2 218.837 85.3C218.941 85.4 219.023 85.516 219.083 85.648C219.143 85.78 219.173 85.922 219.173 86.074ZM224.232 89.14C224.184 89.216 224.132 89.27 224.076 89.302C224.024 89.334 223.956 89.35 223.872 89.35C223.784 89.35 223.696 89.332 223.608 89.296C223.52 89.256 223.424 89.214 223.32 89.17C223.22 89.126 223.106 89.086 222.978 89.05C222.85 89.01 222.704 88.99 222.54 88.99C222.304 88.99 222.122 89.036 221.994 89.128C221.87 89.216 221.808 89.34 221.808 89.5C221.808 89.616 221.848 89.712 221.928 89.788C222.012 89.864 222.122 89.932 222.258 89.992C222.394 90.048 222.548 90.102 222.72 90.154C222.892 90.206 223.068 90.264 223.248 90.328C223.428 90.392 223.604 90.468 223.776 90.556C223.948 90.64 224.102 90.746 224.238 90.874C224.374 90.998 224.482 91.15 224.562 91.33C224.646 91.51 224.688 91.726 224.688 91.978C224.688 92.286 224.632 92.57 224.52 92.83C224.408 93.09 224.24 93.314 224.016 93.502C223.796 93.69 223.522 93.836 223.194 93.94C222.87 94.044 222.496 94.096 222.072 94.096C221.86 94.096 221.648 94.076 221.436 94.036C221.224 93.996 221.018 93.942 220.818 93.874C220.622 93.806 220.44 93.726 220.272 93.634C220.104 93.538 219.96 93.436 219.84 93.328L220.272 92.644C220.32 92.564 220.38 92.502 220.452 92.458C220.528 92.41 220.624 92.386 220.74 92.386C220.848 92.386 220.944 92.41 221.028 92.458C221.116 92.506 221.21 92.558 221.31 92.614C221.41 92.67 221.526 92.722 221.658 92.77C221.794 92.818 221.964 92.842 222.168 92.842C222.312 92.842 222.434 92.828 222.534 92.8C222.634 92.768 222.714 92.726 222.774 92.674C222.834 92.622 222.878 92.564 222.906 92.5C222.934 92.436 222.948 92.37 222.948 92.302C222.948 92.178 222.906 92.076 222.822 91.996C222.738 91.916 222.628 91.848 222.492 91.792C222.356 91.732 222.2 91.678 222.024 91.63C221.852 91.578 221.676 91.52 221.496 91.456C221.316 91.392 221.138 91.316 220.962 91.228C220.79 91.136 220.636 91.022 220.5 90.886C220.364 90.746 220.254 90.576 220.17 90.376C220.086 90.176 220.044 89.934 220.044 89.65C220.044 89.386 220.094 89.136 220.194 88.9C220.298 88.66 220.452 88.45 220.656 88.27C220.86 88.09 221.116 87.948 221.424 87.844C221.732 87.736 222.092 87.682 222.504 87.682C222.728 87.682 222.944 87.702 223.152 87.742C223.364 87.782 223.562 87.838 223.746 87.91C223.93 87.982 224.098 88.068 224.25 88.168C224.402 88.264 224.536 88.37 224.652 88.486L224.232 89.14ZM227.848 94.096C227.552 94.096 227.29 94.054 227.062 93.97C226.838 93.882 226.648 93.76 226.492 93.604C226.34 93.444 226.224 93.252 226.144 93.028C226.064 92.804 226.024 92.554 226.024 92.278V89.062H225.496C225.4 89.062 225.318 89.032 225.25 88.972C225.182 88.908 225.148 88.816 225.148 88.696V87.97L226.138 87.778L226.504 86.26C226.552 86.068 226.688 85.972 226.912 85.972H227.884V87.79H229.426V89.062H227.884V92.152C227.884 92.296 227.918 92.416 227.986 92.512C228.058 92.604 228.16 92.65 228.292 92.65C228.36 92.65 228.416 92.644 228.46 92.632C228.508 92.616 228.548 92.6 228.58 92.584C228.616 92.564 228.648 92.548 228.676 92.536C228.708 92.52 228.744 92.512 228.784 92.512C228.84 92.512 228.884 92.526 228.916 92.554C228.952 92.578 228.988 92.618 229.024 92.674L229.588 93.556C229.348 93.736 229.078 93.872 228.778 93.964C228.478 94.052 228.168 94.096 227.848 94.096Z" fill="#333333"/>
<path d="M99.275 84.6333L96.4667 95.9083C96.2667 96.75 95.5167 97.3333 94.65 97.3333H83.7C82.4417 97.3333 81.5417 96.0999 81.9167 94.8916L85.425 83.625C85.6667 82.8417 86.3917 82.2999 87.2084 82.2999H97.4584C98.25 82.2999 98.9084 82.7833 99.1834 83.4499C99.3417 83.8083 99.375 84.2166 99.275 84.6333Z" stroke="#067C55" stroke-width="1.5" stroke-miterlimit="10"/>
<path d="M94.3333 97.3333H98.3166C99.3916 97.3333 100.233 96.425 100.158 95.35L99.3333 84" stroke="#067C55" stroke-width="1.5" stroke-miterlimit="10" stroke-linecap="round" stroke-linejoin="round"/>
<path d="M89.0667 84.3166L89.9333 80.7167" stroke="#067C55" stroke-width="1.5" stroke-miterlimit="10" stroke-linecap="round" stroke-linejoin="round"/>
<path d="M94.6499 84.325L95.4332 80.7084" stroke="#067C55" stroke-width="1.5" stroke-miterlimit="10" stroke-linecap="round" stroke-linejoin="round"/>
<path d="M87.4167 89H94.0834" stroke="#067C55" stroke-width="1.5" stroke-miterlimit="10" stroke-linecap="round" stroke-linejoin="round"/>
<path d="M86.5833 92.3334H93.2499" stroke="#067C55" stroke-width="1.5" stroke-miterlimit="10" stroke-linecap="round" stroke-linejoin="round"/>
</g>
<defs>
<filter id="filter0_d_2016_10557" x="37" y="36" width="237" height="117" filterUnits="userSpaceOnUse" color-interpolation-filters="sRGB">
<feFlood flood-opacity="0" result="BackgroundImageFix"/>
<feColorMatrix in="SourceAlpha" type="matrix" values="0 0 0 0 0 0 0 0 0 0 0 0 0 0 0 0 0 0 127 0" result="hardAlpha"/>
<feMorphology radius="2" operator="dilate" in="SourceAlpha" result="effect1_dropShadow_2016_10557"/>
<feOffset dy="6"/>
<feGaussianBlur stdDeviation="15"/>
<feComposite in2="hardAlpha" operator="out"/>
<feColorMatrix type="matrix" values="0 0 0 0 0 0 0 0 0 0 0 0 0 0 0 0 0 0 0.2 0"/>
<feBlend mode="normal" in2="BackgroundImageFix" result="effect1_dropShadow_2016_10557"/>
<feBlend mode="normal" in="SourceGraphic" in2="effect1_dropShadow_2016_10557" result="shape"/>
</filter>
<clipPath id="clip0_2016_10557">
<rect width="591" height="455" fill="white"/>
</clipPath>
</defs>
</svg>
