<svg width="629" height="645" viewBox="0 0 629 645" fill="none" xmlns="http://www.w3.org/2000/svg">
<rect x="140.5" y="34.5" width="487" height="524" rx="18.5" stroke="#044B34" stroke-width="3"/>
<circle cx="449.5" cy="468.5" r="5.5" transform="rotate(90 449.5 468.5)" fill="url(#paint0_linear_2027_11552)"/>
<circle cx="449.5" cy="483.5" r="5.5" transform="rotate(90 449.5 483.5)" fill="url(#paint1_linear_2027_11552)"/>
<circle cx="435.5" cy="468.5" r="5.5" transform="rotate(90 435.5 468.5)" fill="url(#paint2_linear_2027_11552)"/>
<circle cx="421.5" cy="468.5" r="5.5" transform="rotate(90 421.5 468.5)" fill="url(#paint3_linear_2027_11552)"/>
<circle cx="407.5" cy="468.5" r="5.5" transform="rotate(90 407.5 468.5)" fill="url(#paint4_linear_2027_11552)"/>
<circle cx="393.5" cy="468.5" r="5.5" transform="rotate(90 393.5 468.5)" fill="url(#paint5_linear_2027_11552)"/>
<circle cx="379.5" cy="468.5" r="5.5" transform="rotate(90 379.5 468.5)" fill="url(#paint6_linear_2027_11552)"/>
<circle cx="435.5" cy="483.5" r="5.5" transform="rotate(90 435.5 483.5)" fill="url(#paint7_linear_2027_11552)"/>
<circle cx="421.5" cy="483.5" r="5.5" transform="rotate(90 421.5 483.5)" fill="url(#paint8_linear_2027_11552)"/>
<circle cx="407.5" cy="483.5" r="5.5" transform="rotate(90 407.5 483.5)" fill="url(#paint9_linear_2027_11552)"/>
<circle cx="393.5" cy="483.5" r="5.5" transform="rotate(90 393.5 483.5)" fill="url(#paint10_linear_2027_11552)"/>
<circle cx="379.5" cy="483.5" r="5.5" transform="rotate(90 379.5 483.5)" fill="url(#paint11_linear_2027_11552)"/>
<circle cx="461.5" cy="135.5" r="5.5" fill="url(#paint12_linear_2027_11552)"/>
<circle cx="476.5" cy="135.5" r="5.5" fill="url(#paint13_linear_2027_11552)"/>
<circle cx="461.5" cy="149.5" r="5.5" fill="url(#paint14_linear_2027_11552)"/>
<circle cx="461.5" cy="163.5" r="5.5" fill="url(#paint15_linear_2027_11552)"/>
<circle cx="461.5" cy="177.5" r="5.5" fill="url(#paint16_linear_2027_11552)"/>
<circle cx="461.5" cy="191.5" r="5.5" fill="url(#paint17_linear_2027_11552)"/>
<circle cx="461.5" cy="205.5" r="5.5" fill="url(#paint18_linear_2027_11552)"/>
<circle cx="476.5" cy="149.5" r="5.5" fill="url(#paint19_linear_2027_11552)"/>
<circle cx="476.5" cy="163.5" r="5.5" fill="url(#paint20_linear_2027_11552)"/>
<circle cx="476.5" cy="177.5" r="5.5" fill="url(#paint21_linear_2027_11552)"/>
<circle cx="476.5" cy="191.5" r="5.5" fill="url(#paint22_linear_2027_11552)"/>
<circle cx="476.5" cy="205.5" r="5.5" fill="url(#paint23_linear_2027_11552)"/>
<circle cx="153" cy="34" r="27" stroke="#067C55" stroke-opacity="0.54" stroke-width="14"/>
<path d="M398.161 399.743V316.15C398.161 300.536 386.356 282.828 371.693 276.925L265.631 233.51C241.829 223.798 214.981 223.798 191.178 233.51L85.1164 276.925C70.6447 282.828 58.8389 300.536 58.8389 316.15V399.743C58.8389 492.857 126.437 580.068 218.789 605.584C225.073 607.298 231.928 607.298 238.211 605.584C330.563 580.068 398.161 492.857 398.161 399.743ZM242.781 433.066V483.146C242.781 490.953 236.307 497.427 228.5 497.427C220.693 497.427 214.219 490.953 214.219 483.146V433.066C194.987 426.973 180.896 409.074 180.896 387.938C180.896 361.66 202.223 340.333 228.5 340.333C254.778 340.333 276.104 361.66 276.104 387.938C276.104 409.264 262.013 426.973 242.781 433.066Z" fill="url(#paint24_linear_2027_11552)"/>
<defs>
<linearGradient id="paint0_linear_2027_11552" x1="449.5" y1="463" x2="449.5" y2="474" gradientUnits="userSpaceOnUse">
<stop stop-color="#067C55"/>
<stop offset="1" stop-color="#044B34" stop-opacity="0.42"/>
</linearGradient>
<linearGradient id="paint1_linear_2027_11552" x1="449.5" y1="478" x2="449.5" y2="489" gradientUnits="userSpaceOnUse">
<stop stop-color="#067C55"/>
<stop offset="1" stop-color="#044B34" stop-opacity="0.42"/>
</linearGradient>
<linearGradient id="paint2_linear_2027_11552" x1="435.5" y1="463" x2="435.5" y2="474" gradientUnits="userSpaceOnUse">
<stop stop-color="#067C55"/>
<stop offset="1" stop-color="#044B34" stop-opacity="0.42"/>
</linearGradient>
<linearGradient id="paint3_linear_2027_11552" x1="421.5" y1="463" x2="421.5" y2="474" gradientUnits="userSpaceOnUse">
<stop stop-color="#067C55"/>
<stop offset="1" stop-color="#044B34" stop-opacity="0.42"/>
</linearGradient>
<linearGradient id="paint4_linear_2027_11552" x1="407.5" y1="463" x2="407.5" y2="474" gradientUnits="userSpaceOnUse">
<stop stop-color="#067C55"/>
<stop offset="1" stop-color="#044B34" stop-opacity="0.42"/>
</linearGradient>
<linearGradient id="paint5_linear_2027_11552" x1="393.5" y1="463" x2="393.5" y2="474" gradientUnits="userSpaceOnUse">
<stop stop-color="#067C55"/>
<stop offset="1" stop-color="#044B34" stop-opacity="0.42"/>
</linearGradient>
<linearGradient id="paint6_linear_2027_11552" x1="379.5" y1="463" x2="379.5" y2="474" gradientUnits="userSpaceOnUse">
<stop stop-color="#067C55"/>
<stop offset="1" stop-color="#044B34" stop-opacity="0.42"/>
</linearGradient>
<linearGradient id="paint7_linear_2027_11552" x1="435.5" y1="478" x2="435.5" y2="489" gradientUnits="userSpaceOnUse">
<stop stop-color="#067C55"/>
<stop offset="1" stop-color="#044B34" stop-opacity="0.42"/>
</linearGradient>
<linearGradient id="paint8_linear_2027_11552" x1="421.5" y1="478" x2="421.5" y2="489" gradientUnits="userSpaceOnUse">
<stop stop-color="#067C55"/>
<stop offset="1" stop-color="#044B34" stop-opacity="0.42"/>
</linearGradient>
<linearGradient id="paint9_linear_2027_11552" x1="407.5" y1="478" x2="407.5" y2="489" gradientUnits="userSpaceOnUse">
<stop stop-color="#067C55"/>
<stop offset="1" stop-color="#044B34" stop-opacity="0.42"/>
</linearGradient>
<linearGradient id="paint10_linear_2027_11552" x1="393.5" y1="478" x2="393.5" y2="489" gradientUnits="userSpaceOnUse">
<stop stop-color="#067C55"/>
<stop offset="1" stop-color="#044B34" stop-opacity="0.42"/>
</linearGradient>
<linearGradient id="paint11_linear_2027_11552" x1="379.5" y1="478" x2="379.5" y2="489" gradientUnits="userSpaceOnUse">
<stop stop-color="#067C55"/>
<stop offset="1" stop-color="#044B34" stop-opacity="0.42"/>
</linearGradient>
<linearGradient id="paint12_linear_2027_11552" x1="461.5" y1="130" x2="461.5" y2="141" gradientUnits="userSpaceOnUse">
<stop stop-color="#067C55"/>
<stop offset="1" stop-color="#044B34" stop-opacity="0.42"/>
</linearGradient>
<linearGradient id="paint13_linear_2027_11552" x1="476.5" y1="130" x2="476.5" y2="141" gradientUnits="userSpaceOnUse">
<stop stop-color="#067C55"/>
<stop offset="1" stop-color="#044B34" stop-opacity="0.42"/>
</linearGradient>
<linearGradient id="paint14_linear_2027_11552" x1="461.5" y1="144" x2="461.5" y2="155" gradientUnits="userSpaceOnUse">
<stop stop-color="#067C55"/>
<stop offset="1" stop-color="#044B34" stop-opacity="0.42"/>
</linearGradient>
<linearGradient id="paint15_linear_2027_11552" x1="461.5" y1="158" x2="461.5" y2="169" gradientUnits="userSpaceOnUse">
<stop stop-color="#067C55"/>
<stop offset="1" stop-color="#044B34" stop-opacity="0.42"/>
</linearGradient>
<linearGradient id="paint16_linear_2027_11552" x1="461.5" y1="172" x2="461.5" y2="183" gradientUnits="userSpaceOnUse">
<stop stop-color="#067C55"/>
<stop offset="1" stop-color="#044B34" stop-opacity="0.42"/>
</linearGradient>
<linearGradient id="paint17_linear_2027_11552" x1="461.5" y1="186" x2="461.5" y2="197" gradientUnits="userSpaceOnUse">
<stop stop-color="#067C55"/>
<stop offset="1" stop-color="#044B34" stop-opacity="0.42"/>
</linearGradient>
<linearGradient id="paint18_linear_2027_11552" x1="461.5" y1="200" x2="461.5" y2="211" gradientUnits="userSpaceOnUse">
<stop stop-color="#067C55"/>
<stop offset="1" stop-color="#044B34" stop-opacity="0.42"/>
</linearGradient>
<linearGradient id="paint19_linear_2027_11552" x1="476.5" y1="144" x2="476.5" y2="155" gradientUnits="userSpaceOnUse">
<stop stop-color="#067C55"/>
<stop offset="1" stop-color="#044B34" stop-opacity="0.42"/>
</linearGradient>
<linearGradient id="paint20_linear_2027_11552" x1="476.5" y1="158" x2="476.5" y2="169" gradientUnits="userSpaceOnUse">
<stop stop-color="#067C55"/>
<stop offset="1" stop-color="#044B34" stop-opacity="0.42"/>
</linearGradient>
<linearGradient id="paint21_linear_2027_11552" x1="476.5" y1="172" x2="476.5" y2="183" gradientUnits="userSpaceOnUse">
<stop stop-color="#067C55"/>
<stop offset="1" stop-color="#044B34" stop-opacity="0.42"/>
</linearGradient>
<linearGradient id="paint22_linear_2027_11552" x1="476.5" y1="186" x2="476.5" y2="197" gradientUnits="userSpaceOnUse">
<stop stop-color="#067C55"/>
<stop offset="1" stop-color="#044B34" stop-opacity="0.42"/>
</linearGradient>
<linearGradient id="paint23_linear_2027_11552" x1="476.5" y1="200" x2="476.5" y2="211" gradientUnits="userSpaceOnUse">
<stop stop-color="#067C55"/>
<stop offset="1" stop-color="#044B34" stop-opacity="0.42"/>
</linearGradient>
<linearGradient id="paint24_linear_2027_11552" x1="228.5" y1="226.226" x2="228.5" y2="606.869" gradientUnits="userSpaceOnUse">
<stop stop-color="#067C55"/>
<stop offset="1" stop-color="#044B34"/>
</linearGradient>
</defs>
</svg>
