<svg width="609" height="717" viewBox="0 0 609 717" fill="none" xmlns="http://www.w3.org/2000/svg">
<rect x="120.5" y="34.5" width="487" height="524" rx="18.5" stroke="#044B34" stroke-width="3"/>
<circle cx="429.5" cy="468.5" r="5.5" transform="rotate(90 429.5 468.5)" fill="url(#paint0_linear_2030_11809)"/>
<circle cx="429.5" cy="483.5" r="5.5" transform="rotate(90 429.5 483.5)" fill="url(#paint1_linear_2030_11809)"/>
<circle cx="415.5" cy="468.5" r="5.5" transform="rotate(90 415.5 468.5)" fill="url(#paint2_linear_2030_11809)"/>
<circle cx="401.5" cy="468.5" r="5.5" transform="rotate(90 401.5 468.5)" fill="url(#paint3_linear_2030_11809)"/>
<circle cx="387.5" cy="468.5" r="5.5" transform="rotate(90 387.5 468.5)" fill="url(#paint4_linear_2030_11809)"/>
<circle cx="373.5" cy="468.5" r="5.5" transform="rotate(90 373.5 468.5)" fill="url(#paint5_linear_2030_11809)"/>
<circle cx="359.5" cy="468.5" r="5.5" transform="rotate(90 359.5 468.5)" fill="url(#paint6_linear_2030_11809)"/>
<circle cx="415.5" cy="483.5" r="5.5" transform="rotate(90 415.5 483.5)" fill="url(#paint7_linear_2030_11809)"/>
<circle cx="401.5" cy="483.5" r="5.5" transform="rotate(90 401.5 483.5)" fill="url(#paint8_linear_2030_11809)"/>
<circle cx="387.5" cy="483.5" r="5.5" transform="rotate(90 387.5 483.5)" fill="url(#paint9_linear_2030_11809)"/>
<circle cx="373.5" cy="483.5" r="5.5" transform="rotate(90 373.5 483.5)" fill="url(#paint10_linear_2030_11809)"/>
<circle cx="359.5" cy="483.5" r="5.5" transform="rotate(90 359.5 483.5)" fill="url(#paint11_linear_2030_11809)"/>
<circle cx="441.5" cy="135.5" r="5.5" fill="url(#paint12_linear_2030_11809)"/>
<circle cx="456.5" cy="135.5" r="5.5" fill="url(#paint13_linear_2030_11809)"/>
<circle cx="441.5" cy="149.5" r="5.5" fill="url(#paint14_linear_2030_11809)"/>
<circle cx="441.5" cy="163.5" r="5.5" fill="url(#paint15_linear_2030_11809)"/>
<circle cx="441.5" cy="177.5" r="5.5" fill="url(#paint16_linear_2030_11809)"/>
<circle cx="441.5" cy="191.5" r="5.5" fill="url(#paint17_linear_2030_11809)"/>
<circle cx="441.5" cy="205.5" r="5.5" fill="url(#paint18_linear_2030_11809)"/>
<circle cx="456.5" cy="149.5" r="5.5" fill="url(#paint19_linear_2030_11809)"/>
<circle cx="456.5" cy="163.5" r="5.5" fill="url(#paint20_linear_2030_11809)"/>
<circle cx="456.5" cy="177.5" r="5.5" fill="url(#paint21_linear_2030_11809)"/>
<circle cx="456.5" cy="191.5" r="5.5" fill="url(#paint22_linear_2030_11809)"/>
<circle cx="456.5" cy="205.5" r="5.5" fill="url(#paint23_linear_2030_11809)"/>
<path d="M300.858 302.082C293.051 294.275 279.532 299.607 279.532 310.46V376.916C279.532 404.717 303.143 427.757 331.896 427.757C349.986 427.948 375.121 427.948 396.638 427.948C407.492 427.948 413.204 415.19 405.588 407.573C378.168 379.963 329.04 330.264 300.858 302.082Z" fill="url(#paint24_linear_2030_11809)"/>
<path d="M390.354 454.035H335.324C290.195 454.035 253.444 417.284 253.444 372.155V317.125C253.444 306.652 244.876 298.083 234.403 298.083H153.666C95.0178 298.083 47.604 336.167 47.604 404.145V572.855C47.604 640.833 95.0178 678.917 153.666 678.917H303.334C361.982 678.917 409.396 640.833 409.396 572.855V473.076C409.396 462.603 400.827 454.035 390.354 454.035ZM218.979 597.99H142.812C135.005 597.99 128.531 591.515 128.531 583.708C128.531 575.901 135.005 569.427 142.812 569.427H218.979C226.786 569.427 233.26 575.901 233.26 583.708C233.26 591.515 226.786 597.99 218.979 597.99ZM257.062 521.823H142.812C135.005 521.823 128.531 515.349 128.531 507.542C128.531 499.735 135.005 493.26 142.812 493.26H257.062C264.869 493.26 271.344 499.735 271.344 507.542C271.344 515.349 264.869 521.823 257.062 521.823Z" fill="url(#paint25_linear_2030_11809)"/>
<circle cx="133" cy="34" r="27" stroke="#067C55" stroke-opacity="0.54" stroke-width="14"/>
<defs>
<linearGradient id="paint0_linear_2030_11809" x1="429.5" y1="463" x2="429.5" y2="474" gradientUnits="userSpaceOnUse">
<stop stop-color="#067C55"/>
<stop offset="1" stop-color="#044B34" stop-opacity="0.42"/>
</linearGradient>
<linearGradient id="paint1_linear_2030_11809" x1="429.5" y1="478" x2="429.5" y2="489" gradientUnits="userSpaceOnUse">
<stop stop-color="#067C55"/>
<stop offset="1" stop-color="#044B34" stop-opacity="0.42"/>
</linearGradient>
<linearGradient id="paint2_linear_2030_11809" x1="415.5" y1="463" x2="415.5" y2="474" gradientUnits="userSpaceOnUse">
<stop stop-color="#067C55"/>
<stop offset="1" stop-color="#044B34" stop-opacity="0.42"/>
</linearGradient>
<linearGradient id="paint3_linear_2030_11809" x1="401.5" y1="463" x2="401.5" y2="474" gradientUnits="userSpaceOnUse">
<stop stop-color="#067C55"/>
<stop offset="1" stop-color="#044B34" stop-opacity="0.42"/>
</linearGradient>
<linearGradient id="paint4_linear_2030_11809" x1="387.5" y1="463" x2="387.5" y2="474" gradientUnits="userSpaceOnUse">
<stop stop-color="#067C55"/>
<stop offset="1" stop-color="#044B34" stop-opacity="0.42"/>
</linearGradient>
<linearGradient id="paint5_linear_2030_11809" x1="373.5" y1="463" x2="373.5" y2="474" gradientUnits="userSpaceOnUse">
<stop stop-color="#067C55"/>
<stop offset="1" stop-color="#044B34" stop-opacity="0.42"/>
</linearGradient>
<linearGradient id="paint6_linear_2030_11809" x1="359.5" y1="463" x2="359.5" y2="474" gradientUnits="userSpaceOnUse">
<stop stop-color="#067C55"/>
<stop offset="1" stop-color="#044B34" stop-opacity="0.42"/>
</linearGradient>
<linearGradient id="paint7_linear_2030_11809" x1="415.5" y1="478" x2="415.5" y2="489" gradientUnits="userSpaceOnUse">
<stop stop-color="#067C55"/>
<stop offset="1" stop-color="#044B34" stop-opacity="0.42"/>
</linearGradient>
<linearGradient id="paint8_linear_2030_11809" x1="401.5" y1="478" x2="401.5" y2="489" gradientUnits="userSpaceOnUse">
<stop stop-color="#067C55"/>
<stop offset="1" stop-color="#044B34" stop-opacity="0.42"/>
</linearGradient>
<linearGradient id="paint9_linear_2030_11809" x1="387.5" y1="478" x2="387.5" y2="489" gradientUnits="userSpaceOnUse">
<stop stop-color="#067C55"/>
<stop offset="1" stop-color="#044B34" stop-opacity="0.42"/>
</linearGradient>
<linearGradient id="paint10_linear_2030_11809" x1="373.5" y1="478" x2="373.5" y2="489" gradientUnits="userSpaceOnUse">
<stop stop-color="#067C55"/>
<stop offset="1" stop-color="#044B34" stop-opacity="0.42"/>
</linearGradient>
<linearGradient id="paint11_linear_2030_11809" x1="359.5" y1="478" x2="359.5" y2="489" gradientUnits="userSpaceOnUse">
<stop stop-color="#067C55"/>
<stop offset="1" stop-color="#044B34" stop-opacity="0.42"/>
</linearGradient>
<linearGradient id="paint12_linear_2030_11809" x1="441.5" y1="130" x2="441.5" y2="141" gradientUnits="userSpaceOnUse">
<stop stop-color="#067C55"/>
<stop offset="1" stop-color="#044B34" stop-opacity="0.42"/>
</linearGradient>
<linearGradient id="paint13_linear_2030_11809" x1="456.5" y1="130" x2="456.5" y2="141" gradientUnits="userSpaceOnUse">
<stop stop-color="#067C55"/>
<stop offset="1" stop-color="#044B34" stop-opacity="0.42"/>
</linearGradient>
<linearGradient id="paint14_linear_2030_11809" x1="441.5" y1="144" x2="441.5" y2="155" gradientUnits="userSpaceOnUse">
<stop stop-color="#067C55"/>
<stop offset="1" stop-color="#044B34" stop-opacity="0.42"/>
</linearGradient>
<linearGradient id="paint15_linear_2030_11809" x1="441.5" y1="158" x2="441.5" y2="169" gradientUnits="userSpaceOnUse">
<stop stop-color="#067C55"/>
<stop offset="1" stop-color="#044B34" stop-opacity="0.42"/>
</linearGradient>
<linearGradient id="paint16_linear_2030_11809" x1="441.5" y1="172" x2="441.5" y2="183" gradientUnits="userSpaceOnUse">
<stop stop-color="#067C55"/>
<stop offset="1" stop-color="#044B34" stop-opacity="0.42"/>
</linearGradient>
<linearGradient id="paint17_linear_2030_11809" x1="441.5" y1="186" x2="441.5" y2="197" gradientUnits="userSpaceOnUse">
<stop stop-color="#067C55"/>
<stop offset="1" stop-color="#044B34" stop-opacity="0.42"/>
</linearGradient>
<linearGradient id="paint18_linear_2030_11809" x1="441.5" y1="200" x2="441.5" y2="211" gradientUnits="userSpaceOnUse">
<stop stop-color="#067C55"/>
<stop offset="1" stop-color="#044B34" stop-opacity="0.42"/>
</linearGradient>
<linearGradient id="paint19_linear_2030_11809" x1="456.5" y1="144" x2="456.5" y2="155" gradientUnits="userSpaceOnUse">
<stop stop-color="#067C55"/>
<stop offset="1" stop-color="#044B34" stop-opacity="0.42"/>
</linearGradient>
<linearGradient id="paint20_linear_2030_11809" x1="456.5" y1="158" x2="456.5" y2="169" gradientUnits="userSpaceOnUse">
<stop stop-color="#067C55"/>
<stop offset="1" stop-color="#044B34" stop-opacity="0.42"/>
</linearGradient>
<linearGradient id="paint21_linear_2030_11809" x1="456.5" y1="172" x2="456.5" y2="183" gradientUnits="userSpaceOnUse">
<stop stop-color="#067C55"/>
<stop offset="1" stop-color="#044B34" stop-opacity="0.42"/>
</linearGradient>
<linearGradient id="paint22_linear_2030_11809" x1="456.5" y1="186" x2="456.5" y2="197" gradientUnits="userSpaceOnUse">
<stop stop-color="#067C55"/>
<stop offset="1" stop-color="#044B34" stop-opacity="0.42"/>
</linearGradient>
<linearGradient id="paint23_linear_2030_11809" x1="456.5" y1="200" x2="456.5" y2="211" gradientUnits="userSpaceOnUse">
<stop stop-color="#067C55"/>
<stop offset="1" stop-color="#044B34" stop-opacity="0.42"/>
</linearGradient>
<linearGradient id="paint24_linear_2030_11809" x1="344.303" y1="298.372" x2="344.303" y2="427.948" gradientUnits="userSpaceOnUse">
<stop stop-color="#067C55"/>
<stop offset="1" stop-color="#044B34"/>
</linearGradient>
<linearGradient id="paint25_linear_2030_11809" x1="228.5" y1="298.083" x2="228.5" y2="678.917" gradientUnits="userSpaceOnUse">
<stop stop-color="#067C55"/>
<stop offset="1" stop-color="#044B34"/>
</linearGradient>
</defs>
</svg>
